<svg width="55" height="71" viewBox="0 0 55 71" fill="none" xmlns="http://www.w3.org/2000/svg">
<g clip-path="url(#clip0_272_1177)">
<path fill-rule="evenodd" clip-rule="evenodd" d="M16.5168 70.9195V25.2755H24.7394C27.429 25.2755 28.9392 26.5756 28.9392 29.1781V58.5763C28.9392 61.2804 27.4311 62.6335 24.7394 62.6335H20.6808V70.9217H17.591L16.5168 70.9195ZM24.8026 58.4767V29.4195H20.6808V58.4746H24.8026V58.4767Z" fill="white"/>
<path fill-rule="evenodd" clip-rule="evenodd" d="M12.3402 58.4767C12.3402 61.1809 10.9943 62.6123 8.30473 62.6123H4.03547C1.51646 62.6123 0.170602 61.2338 0 58.6313V25.2755H4.03547L4.12393 58.4767H8.30473V25.2755H12.3402V58.4767Z" fill="white"/>
<path d="M33.0251 71L33.0567 62.6483L37.1238 62.6441L37.1364 29.4322L41.2835 29.428V25.303L33.0251 25.2797V17L55.4705 17L55.5 70.9704L33.0251 71Z" fill="white"/>
</g>
<path d="M4.19766 10.983C3.63485 10.983 3.15243 10.9118 2.75042 10.7694C2.34841 10.6271 2.02178 10.4542 1.77052 10.2508C1.51926 10.0474 1.32831 9.84401 1.19766 9.64062C1.07705 9.43723 1.01173 9.27452 1.00168 9.15248C0.991625 9.04062 1.0268 8.95418 1.1072 8.89316C1.18761 8.83214 1.26801 8.80163 1.34841 8.80163H2.0268C2.07705 8.80163 2.11725 8.8118 2.14741 8.83214C2.18761 8.84231 2.23786 8.88299 2.29816 8.95418C2.42881 9.09655 2.57454 9.23892 2.73535 9.3813C2.89615 9.52367 3.09213 9.64062 3.32329 9.73214C3.56449 9.82367 3.86098 9.86943 4.21274 9.86943C4.7253 9.86943 5.14741 9.77282 5.47907 9.5796C5.81073 9.37621 5.97656 9.0813 5.97656 8.69485C5.97656 8.44062 5.90621 8.23723 5.7655 8.08468C5.63485 7.93214 5.39364 7.79485 5.04188 7.67282C4.70017 7.55079 4.22781 7.42367 3.62479 7.29146C3.02178 7.14909 2.54439 6.97621 2.19263 6.77282C1.84087 6.55926 1.58962 6.31011 1.43886 6.02536C1.28811 5.73045 1.21273 5.39994 1.21273 5.03384C1.21273 4.65757 1.32328 4.29655 1.54439 3.95079C1.7655 3.59485 2.0871 3.30502 2.50922 3.0813C2.94138 2.85757 3.47907 2.7457 4.12228 2.7457C4.6449 2.7457 5.09213 2.8118 5.46399 2.94401C5.83585 3.07621 6.14239 3.24401 6.38359 3.4474C6.6248 3.64062 6.8057 3.83384 6.92631 4.02706C7.04691 4.22028 7.11224 4.38299 7.12229 4.51519C7.13234 4.61689 7.10219 4.70333 7.03184 4.77452C6.96148 4.83553 6.88108 4.86604 6.79063 4.86604H6.15746C6.08711 4.86604 6.02681 4.85079 5.97656 4.82028C5.93636 4.78977 5.89616 4.75418 5.85595 4.7135C5.75545 4.58129 5.63485 4.44909 5.49414 4.31689C5.36349 4.18468 5.18761 4.0779 4.96651 3.99655C4.75545 3.90502 4.47404 3.85926 4.12228 3.85926C3.61977 3.85926 3.24288 3.96604 2.99163 4.1796C2.74037 4.39316 2.61474 4.66265 2.61474 4.98807C2.61474 5.18129 2.67002 5.35418 2.78057 5.50672C2.89113 5.65926 3.10218 5.79655 3.41374 5.91858C3.7253 6.04062 4.18761 6.17282 4.80068 6.31519C5.46399 6.4474 5.98661 6.62536 6.36852 6.84909C6.75043 7.07282 7.02179 7.33214 7.18259 7.62706C7.34339 7.92197 7.4238 8.26265 7.4238 8.64909C7.4238 9.07621 7.30319 9.46774 7.06199 9.82367C6.82078 10.1796 6.45897 10.4643 5.97656 10.6779C5.49414 10.8813 4.90118 10.983 4.19766 10.983Z" fill="white"/>
<path d="M12.2146 10.8304C11.6518 10.8304 11.1945 10.7237 10.8427 10.5101C10.491 10.2864 10.2347 9.97621 10.0739 9.5796C9.91308 9.17282 9.83268 8.69485 9.83268 8.1457V4.11858H8.6568C8.5563 4.11858 8.47087 4.08807 8.40052 4.02706C8.34022 3.95587 8.31006 3.86943 8.31006 3.76774V3.24909C8.31006 3.1474 8.34022 3.06604 8.40052 3.00502C8.47087 2.93384 8.5563 2.89824 8.6568 2.89824H9.83268V0.350786C9.83268 0.249092 9.86283 0.167736 9.92313 0.106719C9.99348 0.0355323 10.0789 -6.10352e-05 10.1794 -6.10352e-05H10.888C10.9885 -6.10352e-05 11.0689 0.0355323 11.1292 0.106719C11.1995 0.167736 11.2347 0.249092 11.2347 0.350786V2.89824H13.104C13.2146 2.89824 13.3 2.93384 13.3603 3.00502C13.4206 3.06604 13.4508 3.1474 13.4508 3.24909V3.76774C13.4508 3.86943 13.4206 3.95587 13.3603 4.02706C13.3 4.08807 13.2146 4.11858 13.104 4.11858H11.2347V8.03892C11.2347 8.51689 11.3151 8.89316 11.4759 9.16774C11.6367 9.44231 11.9231 9.5796 12.3352 9.5796H13.2548C13.3553 9.5796 13.4357 9.61519 13.496 9.68638C13.5664 9.7474 13.6015 9.82875 13.6015 9.93045V10.4796C13.6015 10.5813 13.5664 10.6677 13.496 10.7389C13.4357 10.7999 13.3553 10.8304 13.2548 10.8304H12.2146Z" fill="white"/>
<path d="M17.9677 10.983C17.3245 10.983 16.7768 10.8406 16.3245 10.5559C15.8823 10.261 15.5456 9.85418 15.3145 9.33553C15.0833 8.81689 14.9677 8.22197 14.9677 7.55079V3.24909C14.9677 3.1474 14.9979 3.06604 15.0582 3.00502C15.1285 2.93384 15.214 2.89824 15.3145 2.89824H16.0682C16.1687 2.89824 16.2491 2.93384 16.3095 3.00502C16.3798 3.06604 16.415 3.1474 16.415 3.24909V7.47451C16.415 8.98977 17.0682 9.7474 18.3748 9.7474C18.9979 9.7474 19.4954 9.54909 19.8672 9.15248C20.2492 8.7457 20.4401 8.18638 20.4401 7.47451V3.24909C20.4401 3.1474 20.4703 3.06604 20.5306 3.00502C20.6009 2.93384 20.6863 2.89824 20.7868 2.89824H21.5406C21.6411 2.89824 21.7215 2.93384 21.7818 3.00502C21.8421 3.06604 21.8723 3.1474 21.8723 3.24909V10.4796C21.8723 10.5813 21.8421 10.6677 21.7818 10.7389C21.7215 10.7999 21.6411 10.8304 21.5406 10.8304H20.8321C20.7316 10.8304 20.6461 10.7999 20.5758 10.7389C20.5155 10.6677 20.4853 10.5813 20.4853 10.4796V9.80841C20.214 10.1643 19.8823 10.4491 19.4904 10.6627C19.1084 10.8762 18.6009 10.983 17.9677 10.983Z" fill="white"/>
<path d="M26.9762 10.983C26.4235 10.983 25.9461 10.8864 25.5441 10.6932C25.1421 10.4898 24.8104 10.2203 24.5491 9.88468C24.2978 9.53892 24.1069 9.1474 23.9762 8.71011C23.8556 8.27282 23.7853 7.81011 23.7652 7.32197C23.7551 7.15926 23.7501 7.00672 23.7501 6.86435C23.7501 6.72197 23.7551 6.56943 23.7652 6.40672C23.7853 5.92875 23.8556 5.47113 23.9762 5.03384C24.1069 4.59655 24.2978 4.20502 24.5491 3.85926C24.8104 3.5135 25.1421 3.24401 25.5441 3.05079C25.9461 2.8474 26.4235 2.7457 26.9762 2.7457C27.5692 2.7457 28.0617 2.85248 28.4536 3.06604C28.8456 3.2796 29.1672 3.54401 29.4185 3.85926V0.350786C29.4185 0.249092 29.4486 0.167736 29.5089 0.106719C29.5793 0.0355323 29.6647 -6.10352e-05 29.7652 -6.10352e-05H30.4888C30.5893 -6.10352e-05 30.6697 0.0355323 30.73 0.106719C30.8004 0.167736 30.8355 0.249092 30.8355 0.350786V10.4796C30.8355 10.5813 30.8004 10.6677 30.73 10.7389C30.6697 10.7999 30.5893 10.8304 30.4888 10.8304H29.8104C29.6999 10.8304 29.6144 10.7999 29.5541 10.7389C29.4938 10.6677 29.4637 10.5813 29.4637 10.4796V9.83892C29.2124 10.1643 28.8858 10.4389 28.4838 10.6627C28.0818 10.8762 27.5793 10.983 26.9762 10.983ZM27.2928 9.7474C27.7953 9.7474 28.1973 9.63045 28.4989 9.39655C28.8004 9.16265 29.0265 8.86773 29.1772 8.5118C29.328 8.1457 29.4084 7.77452 29.4185 7.39824C29.4285 7.23553 29.4335 7.04231 29.4335 6.81858C29.4335 6.58468 29.4285 6.38638 29.4185 6.22367C29.4084 5.86774 29.323 5.51689 29.1622 5.17113C29.0114 4.82536 28.7803 4.54062 28.4687 4.31689C28.1672 4.09316 27.7752 3.98129 27.2928 3.98129C26.7803 3.98129 26.3732 4.09824 26.0717 4.33214C25.7702 4.55587 25.5541 4.85587 25.4235 5.23214C25.2928 5.59824 25.2174 5.99485 25.1973 6.42197C25.1873 6.71689 25.1873 7.0118 25.1973 7.30672C25.2174 7.73384 25.2928 8.13553 25.4235 8.5118C25.5541 8.8779 25.7702 9.17791 26.0717 9.4118C26.3732 9.63553 26.7803 9.7474 27.2928 9.7474Z" fill="white"/>
<path d="M36.2133 10.983C35.1681 10.983 34.339 10.6627 33.7259 10.022C33.1128 9.37113 32.7761 8.48638 32.7158 7.36774C32.7058 7.23553 32.7008 7.06774 32.7008 6.86435C32.7008 6.65079 32.7058 6.4779 32.7158 6.3457C32.756 5.62367 32.9219 4.99316 33.2133 4.45418C33.5048 3.90502 33.9018 3.48299 34.4043 3.18807C34.9169 2.89316 35.5148 2.7457 36.1983 2.7457C36.9621 2.7457 37.6003 2.90841 38.1128 3.23384C38.6355 3.55926 39.0324 4.02197 39.3038 4.62197C39.5752 5.22197 39.7108 5.92367 39.7108 6.72706V6.98638C39.7108 7.09824 39.6757 7.18468 39.6053 7.2457C39.545 7.30672 39.4646 7.33723 39.3641 7.33723H34.148C34.148 7.3474 34.148 7.36774 34.148 7.39824C34.148 7.42875 34.148 7.45418 34.148 7.47451C34.1681 7.89146 34.2586 8.28299 34.4194 8.64909C34.5802 9.00502 34.8113 9.29485 35.1128 9.51858C35.4244 9.74231 35.7862 9.85418 36.1983 9.85418C36.5601 9.85418 36.8616 9.79824 37.1028 9.68638C37.344 9.57451 37.54 9.45248 37.6907 9.32028C37.8415 9.17791 37.942 9.06604 37.9922 8.98468C38.0827 8.86265 38.153 8.79146 38.2033 8.77112C38.2535 8.74062 38.3339 8.72536 38.4445 8.72536H39.1832C39.2736 8.72536 39.349 8.75587 39.4093 8.81689C39.4797 8.86774 39.5098 8.94401 39.4998 9.0457C39.4897 9.19824 39.4093 9.38638 39.2586 9.61011C39.1078 9.82367 38.8917 10.0372 38.6103 10.2508C38.339 10.4643 37.9973 10.6423 37.5852 10.7847C37.1832 10.9169 36.7259 10.983 36.2133 10.983ZM34.148 6.28468H38.2787V6.23892C38.2787 5.78129 38.1932 5.37452 38.0224 5.01858C37.8616 4.66265 37.6254 4.38299 37.3138 4.1796C37.0023 3.96604 36.6304 3.85926 36.1983 3.85926C35.7661 3.85926 35.3942 3.96604 35.0827 4.1796C34.7812 4.38299 34.55 4.66265 34.3892 5.01858C34.2284 5.37452 34.148 5.78129 34.148 6.23892V6.28468Z" fill="white"/>
<path d="M41.8601 10.8304C41.7596 10.8304 41.6742 10.7999 41.6039 10.7389C41.5436 10.6677 41.5134 10.5813 41.5134 10.4796V3.24909C41.5134 3.1474 41.5436 3.06604 41.6039 3.00502C41.6742 2.93384 41.7596 2.89824 41.8601 2.89824H42.5687C42.6692 2.89824 42.7496 2.93384 42.8099 3.00502C42.8802 3.06604 42.9154 3.1474 42.9154 3.24909V3.92028C43.1767 3.57452 43.5034 3.29485 43.8953 3.0813C44.2973 2.85757 44.8099 2.7457 45.433 2.7457C46.0863 2.7457 46.639 2.89316 47.0913 3.18807C47.5536 3.47282 47.9003 3.87452 48.1315 4.39316C48.3727 4.90163 48.4933 5.49655 48.4933 6.17791V10.4796C48.4933 10.5813 48.4581 10.6677 48.3878 10.7389C48.3275 10.7999 48.2471 10.8304 48.1466 10.8304H47.3928C47.2923 10.8304 47.2069 10.7999 47.1365 10.7389C47.0762 10.6677 47.0461 10.5813 47.0461 10.4796V6.25418C47.0461 5.54231 46.8752 4.98807 46.5335 4.59146C46.1918 4.18468 45.6893 3.98129 45.026 3.98129C44.4029 3.98129 43.9003 4.18468 43.5184 4.59146C43.1466 4.98807 42.9606 5.54231 42.9606 6.25418V10.4796C42.9606 10.5813 42.9255 10.6677 42.8551 10.7389C42.7948 10.7999 42.7144 10.8304 42.6139 10.8304H41.8601Z" fill="white"/>
<path d="M53.6131 10.8304C53.0502 10.8304 52.593 10.7237 52.2412 10.5101C51.8894 10.2864 51.6332 9.97621 51.4724 9.5796C51.3115 9.17282 51.2311 8.69485 51.2311 8.1457V4.11858H50.0553C49.9548 4.11858 49.8693 4.08807 49.799 4.02706C49.7387 3.95587 49.7085 3.86943 49.7085 3.76774V3.24909C49.7085 3.1474 49.7387 3.06604 49.799 3.00502C49.8693 2.93384 49.9548 2.89824 50.0553 2.89824H51.2311V0.350786C51.2311 0.249092 51.2613 0.167736 51.3216 0.106719C51.392 0.0355323 51.4774 -6.10352e-05 51.5779 -6.10352e-05H52.2864C52.3869 -6.10352e-05 52.4673 0.0355323 52.5276 0.106719C52.598 0.167736 52.6332 0.249092 52.6332 0.350786V2.89824H54.5025C54.6131 2.89824 54.6985 2.93384 54.7588 3.00502C54.8191 3.06604 54.8492 3.1474 54.8492 3.24909V3.76774C54.8492 3.86943 54.8191 3.95587 54.7588 4.02706C54.6985 4.08807 54.6131 4.11858 54.5025 4.11858H52.6332V8.03892C52.6332 8.51689 52.7136 8.89316 52.8744 9.16774C53.0352 9.44231 53.3216 9.5796 53.7337 9.5796H54.6533C54.7538 9.5796 54.8342 9.61519 54.8945 9.68638C54.9648 9.7474 55 9.82875 55 9.93045V10.4796C55 10.5813 54.9648 10.6677 54.8945 10.7389C54.8342 10.7999 54.7538 10.8304 54.6533 10.8304H53.6131Z" fill="white"/>
<defs>
<clipPath id="clip0_272_1177">
<rect width="55" height="54" fill="white" transform="translate(0 17)"/>
</clipPath>
</defs>
</svg>
