<svg width="311" height="402" viewBox="0 0 311 402" fill="none" xmlns="http://www.w3.org/2000/svg">
<mask id="path-1-inside-1_413_1878" fill="white">
<path d="M26.0575 66.3294C22.966 66.3294 20.3161 65.9384 18.1079 65.1564C15.8997 64.3743 14.1055 63.4247 12.7254 62.3075C11.3452 61.1903 10.2963 60.073 9.57863 58.9558C8.91616 57.8386 8.55733 56.9449 8.50212 56.2745C8.44692 55.6601 8.64014 55.1852 9.08178 54.8501C9.52343 54.5149 9.96507 54.3473 10.4067 54.3473H14.1331C14.4091 54.3473 14.63 54.4032 14.7956 54.5149C15.0164 54.5708 15.2924 54.7942 15.6237 55.1852C16.3413 55.9673 17.1418 56.7493 18.0251 57.5314C18.9084 58.3134 19.9849 58.9558 21.2546 59.4586C22.5796 59.9613 24.2081 60.2127 26.1403 60.2127C28.9558 60.2127 31.2745 59.682 33.0963 58.6207C34.918 57.5035 35.8289 55.8835 35.8289 53.7608C35.8289 52.3643 35.4425 51.2471 34.6696 50.4092C33.9519 49.5713 32.627 48.8171 30.6948 48.1468C28.8178 47.4765 26.2232 46.7782 22.9108 46.052C19.5985 45.27 16.9762 44.3204 15.044 43.2031C13.1118 42.0301 11.7317 40.6615 10.9036 39.0974C10.0755 37.4774 9.66144 35.662 9.66144 33.651C9.66144 31.5841 10.2687 29.6011 11.4832 27.7018C12.6978 25.7467 14.4643 24.1547 16.783 22.9258C19.1568 21.6968 22.1103 21.0824 25.6435 21.0824C28.5142 21.0824 30.9708 21.4455 33.0135 22.1716C35.0561 22.8978 36.7398 23.8195 38.0648 24.9367C39.3897 25.9981 40.3834 27.0594 41.0459 28.1208C41.7083 29.1821 42.0672 30.0759 42.1224 30.8021C42.1776 31.3607 42.012 31.8355 41.6255 32.2265C41.2391 32.5617 40.7975 32.7293 40.3006 32.7293H36.8226C36.4362 32.7293 36.105 32.6455 35.8289 32.4779C35.6081 32.3103 35.3873 32.1148 35.1665 31.8914C34.6144 31.1652 33.9519 30.439 33.1791 29.7128C32.4614 28.9866 31.4953 28.4001 30.2808 27.9532C29.1214 27.4505 27.5757 27.1991 25.6435 27.1991C22.8832 27.1991 20.813 27.7856 19.4328 28.9587C18.0527 30.1318 17.3626 31.6121 17.3626 33.3996C17.3626 34.461 17.6663 35.4106 18.2735 36.2485C18.8808 37.0864 20.0401 37.8405 21.7515 38.5109C23.4629 39.1812 26.0023 39.9074 29.3699 40.6894C33.0135 41.4156 35.8841 42.3932 37.982 43.6221C40.0798 44.851 41.5703 46.2755 42.4536 47.8954C43.3369 49.5154 43.7786 51.3867 43.7786 53.5094C43.7786 55.8556 43.1161 58.0062 41.7912 59.9613C40.4662 61.9164 38.4788 63.4805 35.8289 64.6536C33.1791 65.7708 29.9219 66.3294 26.0575 66.3294Z" class="svg-elem-1"></path>
<path d="M70.0942 65.4915C67.0027 65.4915 64.4908 64.905 62.5586 63.7319C60.6264 62.503 59.2187 60.7992 58.3354 58.6207C57.4521 56.3862 57.0105 53.7608 57.0105 50.7443V28.6235H50.5514C49.9993 28.6235 49.5301 28.456 49.1436 28.1208C48.8124 27.7298 48.6468 27.255 48.6468 26.6963V23.8475C48.6468 23.2889 48.8124 22.842 49.1436 22.5068C49.5301 22.1158 49.9993 21.9203 50.5514 21.9203H57.0105V7.92719C57.0105 7.36858 57.1761 6.9217 57.5073 6.58654C57.8937 6.19551 58.363 6 58.9151 6H62.8071C63.3591 6 63.8008 6.19551 64.132 6.58654C64.5184 6.9217 64.7117 7.36858 64.7117 7.92719V21.9203H74.9799C75.5872 21.9203 76.0564 22.1158 76.3877 22.5068C76.7189 22.842 76.8845 23.2889 76.8845 23.8475V26.6963C76.8845 27.255 76.7189 27.7298 76.3877 28.1208C76.0564 28.456 75.5872 28.6235 74.9799 28.6235H64.7117V50.1578C64.7117 52.7832 65.1533 54.8501 66.0366 56.3583C66.9199 57.8666 68.4932 58.6207 70.7567 58.6207H75.808C76.3601 58.6207 76.8017 58.8162 77.1329 59.2072C77.5194 59.5424 77.7126 59.9893 77.7126 60.5479V63.5643C77.7126 64.1229 77.5194 64.5978 77.1329 64.9888C76.8017 65.3239 76.3601 65.4915 75.808 65.4915H70.0942Z" class="svg-elem-2"></path>
<path d="M101.696 66.3294C98.1629 66.3294 95.1541 65.5474 92.6699 63.9833C90.2408 62.3633 88.3914 60.1289 87.1217 57.28C85.852 54.4311 85.2171 51.1633 85.2171 47.4765V23.8475C85.2171 23.2889 85.3827 22.842 85.714 22.5068C86.1004 22.1158 86.5697 21.9203 87.1217 21.9203H91.2621C91.8142 21.9203 92.2558 22.1158 92.5871 22.5068C92.9735 22.842 93.1667 23.2889 93.1667 23.8475V47.0575C93.1667 55.3808 96.7551 59.5424 103.932 59.5424C107.355 59.5424 110.087 58.4531 112.13 56.2745C114.228 54.0401 115.277 50.9678 115.277 47.0575V23.8475C115.277 23.2889 115.442 22.842 115.773 22.5068C116.16 22.1158 116.629 21.9203 117.181 21.9203H121.322C121.874 21.9203 122.315 22.1158 122.647 22.5068C122.978 22.842 123.143 23.2889 123.143 23.8475V63.5643C123.143 64.1229 122.978 64.5978 122.647 64.9888C122.315 65.3239 121.874 65.4915 121.322 65.4915H117.43C116.878 65.4915 116.408 65.3239 116.022 64.9888C115.691 64.5978 115.525 64.1229 115.525 63.5643V59.8775C114.034 61.8327 112.213 63.3967 110.06 64.5698C107.962 65.7429 105.174 66.3294 101.696 66.3294Z" class="svg-elem-3"></path>
<path d="M151.179 66.3294C148.143 66.3294 145.521 65.7988 143.312 64.7374C141.104 63.6202 139.282 62.1399 137.847 60.2965C136.467 58.3972 135.418 56.2466 134.7 53.8446C134.038 51.4426 133.651 48.9009 133.541 46.2196C133.486 45.3258 133.458 44.4879 133.458 43.7059C133.458 42.9238 133.486 42.0859 133.541 41.1922C133.651 38.5667 134.038 36.053 134.7 33.651C135.418 31.249 136.467 29.0984 137.847 27.1991C139.282 25.2998 141.104 23.8195 143.312 22.7582C145.521 21.641 148.143 21.0824 151.179 21.0824C154.436 21.0824 157.142 21.6689 159.295 22.842C161.448 24.015 163.214 25.4674 164.594 27.1991V7.92719C164.594 7.36858 164.76 6.9217 165.091 6.58654C165.478 6.19551 165.947 6 166.499 6H170.474C171.026 6 171.467 6.19551 171.799 6.58654C172.185 6.9217 172.378 7.36858 172.378 7.92719V63.5643C172.378 64.1229 172.185 64.5978 171.799 64.9888C171.467 65.3239 171.026 65.4915 170.474 65.4915H166.747C166.14 65.4915 165.671 65.3239 165.34 64.9888C165.008 64.5978 164.843 64.1229 164.843 63.5643V60.0451C163.463 61.8327 161.668 63.3409 159.46 64.5698C157.252 65.7429 154.492 66.3294 151.179 66.3294ZM152.918 59.5424C155.679 59.5424 157.887 58.9 159.543 57.6152C161.199 56.3304 162.441 54.7104 163.269 52.7553C164.097 50.7443 164.539 48.7054 164.594 46.6386C164.649 45.7448 164.677 44.6835 164.677 43.4545C164.677 42.1697 164.649 41.0804 164.594 40.1867C164.539 38.2316 164.07 36.3044 163.187 34.4051C162.358 32.5058 161.089 30.9418 159.377 29.7128C157.721 28.4839 155.568 27.8694 152.918 27.8694C150.103 27.8694 147.867 28.5118 146.211 29.7966C144.555 31.0255 143.368 32.6734 142.65 34.7403C141.932 36.7513 141.518 38.9298 141.408 41.276C141.353 42.8959 141.353 44.5159 141.408 46.1358C141.518 48.482 141.932 50.6885 142.65 52.7553C143.368 54.7663 144.555 56.4142 146.211 57.699C147.867 58.9279 150.103 59.5424 152.918 59.5424Z" class="svg-elem-4"></path>
<path d="M201.918 66.3294C196.177 66.3294 191.622 64.5698 188.255 61.0506C184.887 57.4755 183.038 52.6157 182.707 46.471C182.652 45.7448 182.624 44.8231 182.624 43.7059C182.624 42.5328 182.652 41.5832 182.707 40.857C182.928 36.8909 183.838 33.4275 185.439 30.4669C187.04 27.4505 189.221 25.1322 191.981 23.5123C194.797 21.8923 198.082 21.0824 201.835 21.0824C206.031 21.0824 209.537 21.9761 212.352 23.7637C215.223 25.5512 217.403 28.0929 218.894 31.3886C220.385 34.6844 221.13 38.5388 221.13 42.9518V44.3762C221.13 44.9907 220.937 45.4655 220.55 45.8007C220.219 46.1358 219.777 46.3034 219.225 46.3034H190.574C190.574 46.3593 190.574 46.471 190.574 46.6386C190.574 46.8062 190.574 46.9458 190.574 47.0575C190.684 49.3478 191.181 51.4984 192.064 53.5094C192.947 55.4645 194.217 57.0566 195.873 58.2855C197.585 59.5144 199.572 60.1289 201.835 60.1289C203.823 60.1289 205.479 59.8217 206.804 59.2072C208.129 58.5927 209.205 57.9224 210.034 57.1962C210.862 56.4142 211.414 55.7997 211.69 55.3528C212.187 54.6825 212.573 54.2915 212.849 54.1798C213.125 54.0122 213.567 53.9284 214.174 53.9284H218.232C218.728 53.9284 219.142 54.096 219.474 54.4311C219.86 54.7104 220.026 55.1294 219.971 55.688C219.915 56.5259 219.474 57.5593 218.646 58.7883C217.818 59.9613 216.631 61.1344 215.085 62.3075C213.594 63.4805 211.717 64.4581 209.454 65.2401C207.246 65.9663 204.734 66.3294 201.918 66.3294ZM190.574 40.5218H213.263V40.2705C213.263 37.7567 212.794 35.5223 211.855 33.5672C210.972 31.6121 209.675 30.0759 207.963 28.9587C206.252 27.7856 204.209 27.1991 201.835 27.1991C199.462 27.1991 197.419 27.7856 195.708 28.9587C194.051 30.0759 192.782 31.6121 191.898 33.5672C191.015 35.5223 190.574 37.7567 190.574 40.2705V40.5218Z" class="svg-elem-5"></path>
<path d="M232.936 65.4915C232.384 65.4915 231.915 65.3239 231.528 64.9888C231.197 64.5978 231.031 64.1229 231.031 63.5643V23.8475C231.031 23.2889 231.197 22.842 231.528 22.5068C231.915 22.1158 232.384 21.9203 232.936 21.9203H236.828C237.38 21.9203 237.822 22.1158 238.153 22.5068C238.539 22.842 238.733 23.2889 238.733 23.8475V27.5343C240.168 25.635 241.962 24.0988 244.115 22.9258C246.323 21.6968 249.139 21.0824 252.562 21.0824C256.15 21.0824 259.186 21.8923 261.67 23.5123C264.21 25.0764 266.115 27.2829 267.384 30.1318C268.709 32.9248 269.372 36.1926 269.372 39.9353V63.5643C269.372 64.1229 269.178 64.5978 268.792 64.9888C268.461 65.3239 268.019 65.4915 267.467 65.4915H263.327C262.775 65.4915 262.305 65.3239 261.919 64.9888C261.588 64.5978 261.422 64.1229 261.422 63.5643V40.3543C261.422 36.444 260.484 33.3996 258.607 31.2211C256.73 28.9866 253.969 27.8694 250.326 27.8694C246.903 27.8694 244.143 28.9866 242.045 31.2211C240.002 33.3996 238.981 36.444 238.981 40.3543V63.5643C238.981 64.1229 238.788 64.5978 238.401 64.9888C238.07 65.3239 237.628 65.4915 237.076 65.4915H232.936Z" class="svg-elem-6"></path>
<path d="M297.494 65.4915C294.403 65.4915 291.891 64.905 289.959 63.7319C288.026 62.503 286.619 60.7992 285.735 58.6207C284.852 56.3862 284.41 53.7608 284.41 50.7443V28.6235H277.951C277.399 28.6235 276.93 28.456 276.544 28.1208C276.212 27.7298 276.047 27.255 276.047 26.6963V23.8475C276.047 23.2889 276.212 22.842 276.544 22.5068C276.93 22.1158 277.399 21.9203 277.951 21.9203H284.41V7.92719C284.41 7.36858 284.576 6.9217 284.907 6.58654C285.294 6.19551 285.763 6 286.315 6H290.207C290.759 6 291.201 6.19551 291.532 6.58654C291.918 6.9217 292.112 7.36858 292.112 7.92719V21.9203H302.38C302.987 21.9203 303.456 22.1158 303.788 22.5068C304.119 22.842 304.285 23.2889 304.285 23.8475V26.6963C304.285 27.255 304.119 27.7298 303.788 28.1208C303.456 28.456 302.987 28.6235 302.38 28.6235H292.112V50.1578C292.112 52.7832 292.553 54.8501 293.437 56.3583C294.32 57.8666 295.893 58.6207 298.157 58.6207H303.208C303.76 58.6207 304.202 58.8162 304.533 59.2072C304.919 59.5424 305.113 59.9893 305.113 60.5479V63.5643C305.113 64.1229 304.919 64.5978 304.533 64.9888C304.202 65.3239 303.76 65.4915 303.208 65.4915H297.494Z" class="svg-elem-7"></path>
</mask>
<path d="M26.0575 66.3294C22.966 66.3294 20.3161 65.9384 18.1079 65.1564C15.8997 64.3743 14.1055 63.4247 12.7254 62.3075C11.3452 61.1903 10.2963 60.073 9.57863 58.9558C8.91616 57.8386 8.55733 56.9449 8.50212 56.2745C8.44692 55.6601 8.64014 55.1852 9.08178 54.8501C9.52343 54.5149 9.96507 54.3473 10.4067 54.3473H14.1331C14.4091 54.3473 14.63 54.4032 14.7956 54.5149C15.0164 54.5708 15.2924 54.7942 15.6237 55.1852C16.3413 55.9673 17.1418 56.7493 18.0251 57.5314C18.9084 58.3134 19.9849 58.9558 21.2546 59.4586C22.5796 59.9613 24.2081 60.2127 26.1403 60.2127C28.9558 60.2127 31.2745 59.682 33.0963 58.6207C34.918 57.5035 35.8289 55.8835 35.8289 53.7608C35.8289 52.3643 35.4425 51.2471 34.6696 50.4092C33.9519 49.5713 32.627 48.8171 30.6948 48.1468C28.8178 47.4765 26.2232 46.7782 22.9108 46.052C19.5985 45.27 16.9762 44.3204 15.044 43.2031C13.1118 42.0301 11.7317 40.6615 10.9036 39.0974C10.0755 37.4774 9.66144 35.662 9.66144 33.651C9.66144 31.5841 10.2687 29.6011 11.4832 27.7018C12.6978 25.7467 14.4643 24.1547 16.783 22.9258C19.1568 21.6968 22.1103 21.0824 25.6435 21.0824C28.5142 21.0824 30.9708 21.4455 33.0135 22.1716C35.0561 22.8978 36.7398 23.8195 38.0648 24.9367C39.3897 25.9981 40.3834 27.0594 41.0459 28.1208C41.7083 29.1821 42.0672 30.0759 42.1224 30.8021C42.1776 31.3607 42.012 31.8355 41.6255 32.2265C41.2391 32.5617 40.7975 32.7293 40.3006 32.7293H36.8226C36.4362 32.7293 36.105 32.6455 35.8289 32.4779C35.6081 32.3103 35.3873 32.1148 35.1665 31.8914C34.6144 31.1652 33.9519 30.439 33.1791 29.7128C32.4614 28.9866 31.4953 28.4001 30.2808 27.9532C29.1214 27.4505 27.5757 27.1991 25.6435 27.1991C22.8832 27.1991 20.813 27.7856 19.4328 28.9587C18.0527 30.1318 17.3626 31.6121 17.3626 33.3996C17.3626 34.461 17.6663 35.4106 18.2735 36.2485C18.8808 37.0864 20.0401 37.8405 21.7515 38.5109C23.4629 39.1812 26.0023 39.9074 29.3699 40.6894C33.0135 41.4156 35.8841 42.3932 37.982 43.6221C40.0798 44.851 41.5703 46.2755 42.4536 47.8954C43.3369 49.5154 43.7786 51.3867 43.7786 53.5094C43.7786 55.8556 43.1161 58.0062 41.7912 59.9613C40.4662 61.9164 38.4788 63.4805 35.8289 64.6536C33.1791 65.7708 29.9219 66.3294 26.0575 66.3294Z" fill="#2E3192" class="svg-elem-8"></path>
<path d="M70.0942 65.4915C67.0027 65.4915 64.4908 64.905 62.5586 63.7319C60.6264 62.503 59.2187 60.7992 58.3354 58.6207C57.4521 56.3862 57.0105 53.7608 57.0105 50.7443V28.6235H50.5514C49.9993 28.6235 49.5301 28.456 49.1436 28.1208C48.8124 27.7298 48.6468 27.255 48.6468 26.6963V23.8475C48.6468 23.2889 48.8124 22.842 49.1436 22.5068C49.5301 22.1158 49.9993 21.9203 50.5514 21.9203H57.0105V7.92719C57.0105 7.36858 57.1761 6.9217 57.5073 6.58654C57.8937 6.19551 58.363 6 58.9151 6H62.8071C63.3591 6 63.8008 6.19551 64.132 6.58654C64.5184 6.9217 64.7117 7.36858 64.7117 7.92719V21.9203H74.9799C75.5872 21.9203 76.0564 22.1158 76.3877 22.5068C76.7189 22.842 76.8845 23.2889 76.8845 23.8475V26.6963C76.8845 27.255 76.7189 27.7298 76.3877 28.1208C76.0564 28.456 75.5872 28.6235 74.9799 28.6235H64.7117V50.1578C64.7117 52.7832 65.1533 54.8501 66.0366 56.3583C66.9199 57.8666 68.4932 58.6207 70.7567 58.6207H75.808C76.3601 58.6207 76.8017 58.8162 77.1329 59.2072C77.5194 59.5424 77.7126 59.9893 77.7126 60.5479V63.5643C77.7126 64.1229 77.5194 64.5978 77.1329 64.9888C76.8017 65.3239 76.3601 65.4915 75.808 65.4915H70.0942Z" fill="#2E3192" class="svg-elem-9"></path>
<path d="M101.696 66.3294C98.1629 66.3294 95.1541 65.5474 92.6699 63.9833C90.2408 62.3633 88.3914 60.1289 87.1217 57.28C85.852 54.4311 85.2171 51.1633 85.2171 47.4765V23.8475C85.2171 23.2889 85.3827 22.842 85.714 22.5068C86.1004 22.1158 86.5697 21.9203 87.1217 21.9203H91.2621C91.8142 21.9203 92.2558 22.1158 92.5871 22.5068C92.9735 22.842 93.1667 23.2889 93.1667 23.8475V47.0575C93.1667 55.3808 96.7551 59.5424 103.932 59.5424C107.355 59.5424 110.087 58.4531 112.13 56.2745C114.228 54.0401 115.277 50.9678 115.277 47.0575V23.8475C115.277 23.2889 115.442 22.842 115.773 22.5068C116.16 22.1158 116.629 21.9203 117.181 21.9203H121.322C121.874 21.9203 122.315 22.1158 122.647 22.5068C122.978 22.842 123.143 23.2889 123.143 23.8475V63.5643C123.143 64.1229 122.978 64.5978 122.647 64.9888C122.315 65.3239 121.874 65.4915 121.322 65.4915H117.43C116.878 65.4915 116.408 65.3239 116.022 64.9888C115.691 64.5978 115.525 64.1229 115.525 63.5643V59.8775C114.034 61.8327 112.213 63.3967 110.06 64.5698C107.962 65.7429 105.174 66.3294 101.696 66.3294Z" fill="#2E3192" class="svg-elem-10"></path>
<path d="M151.179 66.3294C148.143 66.3294 145.521 65.7988 143.312 64.7374C141.104 63.6202 139.282 62.1399 137.847 60.2965C136.467 58.3972 135.418 56.2466 134.7 53.8446C134.038 51.4426 133.651 48.9009 133.541 46.2196C133.486 45.3258 133.458 44.4879 133.458 43.7059C133.458 42.9238 133.486 42.0859 133.541 41.1922C133.651 38.5667 134.038 36.053 134.7 33.651C135.418 31.249 136.467 29.0984 137.847 27.1991C139.282 25.2998 141.104 23.8195 143.312 22.7582C145.521 21.641 148.143 21.0824 151.179 21.0824C154.436 21.0824 157.142 21.6689 159.295 22.842C161.448 24.015 163.214 25.4674 164.594 27.1991V7.92719C164.594 7.36858 164.76 6.9217 165.091 6.58654C165.478 6.19551 165.947 6 166.499 6H170.474C171.026 6 171.467 6.19551 171.799 6.58654C172.185 6.9217 172.378 7.36858 172.378 7.92719V63.5643C172.378 64.1229 172.185 64.5978 171.799 64.9888C171.467 65.3239 171.026 65.4915 170.474 65.4915H166.747C166.14 65.4915 165.671 65.3239 165.34 64.9888C165.008 64.5978 164.843 64.1229 164.843 63.5643V60.0451C163.463 61.8327 161.668 63.3409 159.46 64.5698C157.252 65.7429 154.492 66.3294 151.179 66.3294ZM152.918 59.5424C155.679 59.5424 157.887 58.9 159.543 57.6152C161.199 56.3304 162.441 54.7104 163.269 52.7553C164.097 50.7443 164.539 48.7054 164.594 46.6386C164.649 45.7448 164.677 44.6835 164.677 43.4545C164.677 42.1697 164.649 41.0804 164.594 40.1867C164.539 38.2316 164.07 36.3044 163.187 34.4051C162.358 32.5058 161.089 30.9418 159.377 29.7128C157.721 28.4839 155.568 27.8694 152.918 27.8694C150.103 27.8694 147.867 28.5118 146.211 29.7966C144.555 31.0255 143.368 32.6734 142.65 34.7403C141.932 36.7513 141.518 38.9298 141.408 41.276C141.353 42.8959 141.353 44.5159 141.408 46.1358C141.518 48.482 141.932 50.6885 142.65 52.7553C143.368 54.7663 144.555 56.4142 146.211 57.699C147.867 58.9279 150.103 59.5424 152.918 59.5424Z" fill="#2E3192" class="svg-elem-11"></path>
<path d="M201.918 66.3294C196.177 66.3294 191.622 64.5698 188.255 61.0506C184.887 57.4755 183.038 52.6157 182.707 46.471C182.652 45.7448 182.624 44.8231 182.624 43.7059C182.624 42.5328 182.652 41.5832 182.707 40.857C182.928 36.8909 183.838 33.4275 185.439 30.4669C187.04 27.4505 189.221 25.1322 191.981 23.5123C194.797 21.8923 198.082 21.0824 201.835 21.0824C206.031 21.0824 209.537 21.9761 212.352 23.7637C215.223 25.5512 217.403 28.0929 218.894 31.3886C220.385 34.6844 221.13 38.5388 221.13 42.9518V44.3762C221.13 44.9907 220.937 45.4655 220.55 45.8007C220.219 46.1358 219.777 46.3034 219.225 46.3034H190.574C190.574 46.3593 190.574 46.471 190.574 46.6386C190.574 46.8062 190.574 46.9458 190.574 47.0575C190.684 49.3478 191.181 51.4984 192.064 53.5094C192.947 55.4645 194.217 57.0566 195.873 58.2855C197.585 59.5144 199.572 60.1289 201.835 60.1289C203.823 60.1289 205.479 59.8217 206.804 59.2072C208.129 58.5927 209.205 57.9224 210.034 57.1962C210.862 56.4142 211.414 55.7997 211.69 55.3528C212.187 54.6825 212.573 54.2915 212.849 54.1798C213.125 54.0122 213.567 53.9284 214.174 53.9284H218.232C218.728 53.9284 219.142 54.096 219.474 54.4311C219.86 54.7104 220.026 55.1294 219.971 55.688C219.915 56.5259 219.474 57.5593 218.646 58.7883C217.818 59.9613 216.631 61.1344 215.085 62.3075C213.594 63.4805 211.717 64.4581 209.454 65.2401C207.246 65.9663 204.734 66.3294 201.918 66.3294ZM190.574 40.5218H213.263V40.2705C213.263 37.7567 212.794 35.5223 211.855 33.5672C210.972 31.6121 209.675 30.0759 207.963 28.9587C206.252 27.7856 204.209 27.1991 201.835 27.1991C199.462 27.1991 197.419 27.7856 195.708 28.9587C194.051 30.0759 192.782 31.6121 191.898 33.5672C191.015 35.5223 190.574 37.7567 190.574 40.2705V40.5218Z" fill="#2E3192" class="svg-elem-12"></path>
<path d="M232.936 65.4915C232.384 65.4915 231.915 65.3239 231.528 64.9888C231.197 64.5978 231.031 64.1229 231.031 63.5643V23.8475C231.031 23.2889 231.197 22.842 231.528 22.5068C231.915 22.1158 232.384 21.9203 232.936 21.9203H236.828C237.38 21.9203 237.822 22.1158 238.153 22.5068C238.539 22.842 238.733 23.2889 238.733 23.8475V27.5343C240.168 25.635 241.962 24.0988 244.115 22.9258C246.323 21.6968 249.139 21.0824 252.562 21.0824C256.15 21.0824 259.186 21.8923 261.67 23.5123C264.21 25.0764 266.115 27.2829 267.384 30.1318C268.709 32.9248 269.372 36.1926 269.372 39.9353V63.5643C269.372 64.1229 269.178 64.5978 268.792 64.9888C268.461 65.3239 268.019 65.4915 267.467 65.4915H263.327C262.775 65.4915 262.305 65.3239 261.919 64.9888C261.588 64.5978 261.422 64.1229 261.422 63.5643V40.3543C261.422 36.444 260.484 33.3996 258.607 31.2211C256.73 28.9866 253.969 27.8694 250.326 27.8694C246.903 27.8694 244.143 28.9866 242.045 31.2211C240.002 33.3996 238.981 36.444 238.981 40.3543V63.5643C238.981 64.1229 238.788 64.5978 238.401 64.9888C238.07 65.3239 237.628 65.4915 237.076 65.4915H232.936Z" fill="#2E3192" class="svg-elem-13"></path>
<path d="M297.494 65.4915C294.403 65.4915 291.891 64.905 289.959 63.7319C288.026 62.503 286.619 60.7992 285.735 58.6207C284.852 56.3862 284.41 53.7608 284.41 50.7443V28.6235H277.951C277.399 28.6235 276.93 28.456 276.544 28.1208C276.212 27.7298 276.047 27.255 276.047 26.6963V23.8475C276.047 23.2889 276.212 22.842 276.544 22.5068C276.93 22.1158 277.399 21.9203 277.951 21.9203H284.41V7.92719C284.41 7.36858 284.576 6.9217 284.907 6.58654C285.294 6.19551 285.763 6 286.315 6H290.207C290.759 6 291.201 6.19551 291.532 6.58654C291.918 6.9217 292.112 7.36858 292.112 7.92719V21.9203H302.38C302.987 21.9203 303.456 22.1158 303.788 22.5068C304.119 22.842 304.285 23.2889 304.285 23.8475V26.6963C304.285 27.255 304.119 27.7298 303.788 28.1208C303.456 28.456 302.987 28.6235 302.38 28.6235H292.112V50.1578C292.112 52.7832 292.553 54.8501 293.437 56.3583C294.32 57.8666 295.893 58.6207 298.157 58.6207H303.208C303.76 58.6207 304.202 58.8162 304.533 59.2072C304.919 59.5424 305.113 59.9893 305.113 60.5479V63.5643C305.113 64.1229 304.919 64.5978 304.533 64.9888C304.202 65.3239 303.76 65.4915 303.208 65.4915H297.494Z" fill="#2E3192" class="svg-elem-14"></path>
<path d="M26.0575 66.3294C22.966 66.3294 20.3161 65.9384 18.1079 65.1564C15.8997 64.3743 14.1055 63.4247 12.7254 62.3075C11.3452 61.1903 10.2963 60.073 9.57863 58.9558C8.91616 57.8386 8.55733 56.9449 8.50212 56.2745C8.44692 55.6601 8.64014 55.1852 9.08178 54.8501C9.52343 54.5149 9.96507 54.3473 10.4067 54.3473H14.1331C14.4091 54.3473 14.63 54.4032 14.7956 54.5149C15.0164 54.5708 15.2924 54.7942 15.6237 55.1852C16.3413 55.9673 17.1418 56.7493 18.0251 57.5314C18.9084 58.3134 19.9849 58.9558 21.2546 59.4586C22.5796 59.9613 24.2081 60.2127 26.1403 60.2127C28.9558 60.2127 31.2745 59.682 33.0963 58.6207C34.918 57.5035 35.8289 55.8835 35.8289 53.7608C35.8289 52.3643 35.4425 51.2471 34.6696 50.4092C33.9519 49.5713 32.627 48.8171 30.6948 48.1468C28.8178 47.4765 26.2232 46.7782 22.9108 46.052C19.5985 45.27 16.9762 44.3204 15.044 43.2031C13.1118 42.0301 11.7317 40.6615 10.9036 39.0974C10.0755 37.4774 9.66144 35.662 9.66144 33.651C9.66144 31.5841 10.2687 29.6011 11.4832 27.7018C12.6978 25.7467 14.4643 24.1547 16.783 22.9258C19.1568 21.6968 22.1103 21.0824 25.6435 21.0824C28.5142 21.0824 30.9708 21.4455 33.0135 22.1716C35.0561 22.8978 36.7398 23.8195 38.0648 24.9367C39.3897 25.9981 40.3834 27.0594 41.0459 28.1208C41.7083 29.1821 42.0672 30.0759 42.1224 30.8021C42.1776 31.3607 42.012 31.8355 41.6255 32.2265C41.2391 32.5617 40.7975 32.7293 40.3006 32.7293H36.8226C36.4362 32.7293 36.105 32.6455 35.8289 32.4779C35.6081 32.3103 35.3873 32.1148 35.1665 31.8914C34.6144 31.1652 33.9519 30.439 33.1791 29.7128C32.4614 28.9866 31.4953 28.4001 30.2808 27.9532C29.1214 27.4505 27.5757 27.1991 25.6435 27.1991C22.8832 27.1991 20.813 27.7856 19.4328 28.9587C18.0527 30.1318 17.3626 31.6121 17.3626 33.3996C17.3626 34.461 17.6663 35.4106 18.2735 36.2485C18.8808 37.0864 20.0401 37.8405 21.7515 38.5109C23.4629 39.1812 26.0023 39.9074 29.3699 40.6894C33.0135 41.4156 35.8841 42.3932 37.982 43.6221C40.0798 44.851 41.5703 46.2755 42.4536 47.8954C43.3369 49.5154 43.7786 51.3867 43.7786 53.5094C43.7786 55.8556 43.1161 58.0062 41.7912 59.9613C40.4662 61.9164 38.4788 63.4805 35.8289 64.6536C33.1791 65.7708 29.9219 66.3294 26.0575 66.3294Z" stroke="#2E3192" mask="url(#path-1-inside-1_413_1878)" class="svg-elem-15"></path>
<path d="M70.0942 65.4915C67.0027 65.4915 64.4908 64.905 62.5586 63.7319C60.6264 62.503 59.2187 60.7992 58.3354 58.6207C57.4521 56.3862 57.0105 53.7608 57.0105 50.7443V28.6235H50.5514C49.9993 28.6235 49.5301 28.456 49.1436 28.1208C48.8124 27.7298 48.6468 27.255 48.6468 26.6963V23.8475C48.6468 23.2889 48.8124 22.842 49.1436 22.5068C49.5301 22.1158 49.9993 21.9203 50.5514 21.9203H57.0105V7.92719C57.0105 7.36858 57.1761 6.9217 57.5073 6.58654C57.8937 6.19551 58.363 6 58.9151 6H62.8071C63.3591 6 63.8008 6.19551 64.132 6.58654C64.5184 6.9217 64.7117 7.36858 64.7117 7.92719V21.9203H74.9799C75.5872 21.9203 76.0564 22.1158 76.3877 22.5068C76.7189 22.842 76.8845 23.2889 76.8845 23.8475V26.6963C76.8845 27.255 76.7189 27.7298 76.3877 28.1208C76.0564 28.456 75.5872 28.6235 74.9799 28.6235H64.7117V50.1578C64.7117 52.7832 65.1533 54.8501 66.0366 56.3583C66.9199 57.8666 68.4932 58.6207 70.7567 58.6207H75.808C76.3601 58.6207 76.8017 58.8162 77.1329 59.2072C77.5194 59.5424 77.7126 59.9893 77.7126 60.5479V63.5643C77.7126 64.1229 77.5194 64.5978 77.1329 64.9888C76.8017 65.3239 76.3601 65.4915 75.808 65.4915H70.0942Z" stroke="#2E3192" mask="url(#path-1-inside-1_413_1878)" class="svg-elem-16"></path>
<path d="M101.696 66.3294C98.1629 66.3294 95.1541 65.5474 92.6699 63.9833C90.2408 62.3633 88.3914 60.1289 87.1217 57.28C85.852 54.4311 85.2171 51.1633 85.2171 47.4765V23.8475C85.2171 23.2889 85.3827 22.842 85.714 22.5068C86.1004 22.1158 86.5697 21.9203 87.1217 21.9203H91.2621C91.8142 21.9203 92.2558 22.1158 92.5871 22.5068C92.9735 22.842 93.1667 23.2889 93.1667 23.8475V47.0575C93.1667 55.3808 96.7551 59.5424 103.932 59.5424C107.355 59.5424 110.087 58.4531 112.13 56.2745C114.228 54.0401 115.277 50.9678 115.277 47.0575V23.8475C115.277 23.2889 115.442 22.842 115.773 22.5068C116.16 22.1158 116.629 21.9203 117.181 21.9203H121.322C121.874 21.9203 122.315 22.1158 122.647 22.5068C122.978 22.842 123.143 23.2889 123.143 23.8475V63.5643C123.143 64.1229 122.978 64.5978 122.647 64.9888C122.315 65.3239 121.874 65.4915 121.322 65.4915H117.43C116.878 65.4915 116.408 65.3239 116.022 64.9888C115.691 64.5978 115.525 64.1229 115.525 63.5643V59.8775C114.034 61.8327 112.213 63.3967 110.06 64.5698C107.962 65.7429 105.174 66.3294 101.696 66.3294Z" stroke="#2E3192" mask="url(#path-1-inside-1_413_1878)" class="svg-elem-17"></path>
<path d="M151.179 66.3294C148.143 66.3294 145.521 65.7988 143.312 64.7374C141.104 63.6202 139.282 62.1399 137.847 60.2965C136.467 58.3972 135.418 56.2466 134.7 53.8446C134.038 51.4426 133.651 48.9009 133.541 46.2196C133.486 45.3258 133.458 44.4879 133.458 43.7059C133.458 42.9238 133.486 42.0859 133.541 41.1922C133.651 38.5667 134.038 36.053 134.7 33.651C135.418 31.249 136.467 29.0984 137.847 27.1991C139.282 25.2998 141.104 23.8195 143.312 22.7582C145.521 21.641 148.143 21.0824 151.179 21.0824C154.436 21.0824 157.142 21.6689 159.295 22.842C161.448 24.015 163.214 25.4674 164.594 27.1991V7.92719C164.594 7.36858 164.76 6.9217 165.091 6.58654C165.478 6.19551 165.947 6 166.499 6H170.474C171.026 6 171.467 6.19551 171.799 6.58654C172.185 6.9217 172.378 7.36858 172.378 7.92719V63.5643C172.378 64.1229 172.185 64.5978 171.799 64.9888C171.467 65.3239 171.026 65.4915 170.474 65.4915H166.747C166.14 65.4915 165.671 65.3239 165.34 64.9888C165.008 64.5978 164.843 64.1229 164.843 63.5643V60.0451C163.463 61.8327 161.668 63.3409 159.46 64.5698C157.252 65.7429 154.492 66.3294 151.179 66.3294ZM152.918 59.5424C155.679 59.5424 157.887 58.9 159.543 57.6152C161.199 56.3304 162.441 54.7104 163.269 52.7553C164.097 50.7443 164.539 48.7054 164.594 46.6386C164.649 45.7448 164.677 44.6835 164.677 43.4545C164.677 42.1697 164.649 41.0804 164.594 40.1867C164.539 38.2316 164.07 36.3044 163.187 34.4051C162.358 32.5058 161.089 30.9418 159.377 29.7128C157.721 28.4839 155.568 27.8694 152.918 27.8694C150.103 27.8694 147.867 28.5118 146.211 29.7966C144.555 31.0255 143.368 32.6734 142.65 34.7403C141.932 36.7513 141.518 38.9298 141.408 41.276C141.353 42.8959 141.353 44.5159 141.408 46.1358C141.518 48.482 141.932 50.6885 142.65 52.7553C143.368 54.7663 144.555 56.4142 146.211 57.699C147.867 58.9279 150.103 59.5424 152.918 59.5424Z" stroke="#2E3192" mask="url(#path-1-inside-1_413_1878)" class="svg-elem-18"></path>
<path d="M201.918 66.3294C196.177 66.3294 191.622 64.5698 188.255 61.0506C184.887 57.4755 183.038 52.6157 182.707 46.471C182.652 45.7448 182.624 44.8231 182.624 43.7059C182.624 42.5328 182.652 41.5832 182.707 40.857C182.928 36.8909 183.838 33.4275 185.439 30.4669C187.04 27.4505 189.221 25.1322 191.981 23.5123C194.797 21.8923 198.082 21.0824 201.835 21.0824C206.031 21.0824 209.537 21.9761 212.352 23.7637C215.223 25.5512 217.403 28.0929 218.894 31.3886C220.385 34.6844 221.13 38.5388 221.13 42.9518V44.3762C221.13 44.9907 220.937 45.4655 220.55 45.8007C220.219 46.1358 219.777 46.3034 219.225 46.3034H190.574C190.574 46.3593 190.574 46.471 190.574 46.6386C190.574 46.8062 190.574 46.9458 190.574 47.0575C190.684 49.3478 191.181 51.4984 192.064 53.5094C192.947 55.4645 194.217 57.0566 195.873 58.2855C197.585 59.5144 199.572 60.1289 201.835 60.1289C203.823 60.1289 205.479 59.8217 206.804 59.2072C208.129 58.5927 209.205 57.9224 210.034 57.1962C210.862 56.4142 211.414 55.7997 211.69 55.3528C212.187 54.6825 212.573 54.2915 212.849 54.1798C213.125 54.0122 213.567 53.9284 214.174 53.9284H218.232C218.728 53.9284 219.142 54.096 219.474 54.4311C219.86 54.7104 220.026 55.1294 219.971 55.688C219.915 56.5259 219.474 57.5593 218.646 58.7883C217.818 59.9613 216.631 61.1344 215.085 62.3075C213.594 63.4805 211.717 64.4581 209.454 65.2401C207.246 65.9663 204.734 66.3294 201.918 66.3294ZM190.574 40.5218H213.263V40.2705C213.263 37.7567 212.794 35.5223 211.855 33.5672C210.972 31.6121 209.675 30.0759 207.963 28.9587C206.252 27.7856 204.209 27.1991 201.835 27.1991C199.462 27.1991 197.419 27.7856 195.708 28.9587C194.051 30.0759 192.782 31.6121 191.898 33.5672C191.015 35.5223 190.574 37.7567 190.574 40.2705V40.5218Z" stroke="#2E3192" mask="url(#path-1-inside-1_413_1878)" class="svg-elem-19"></path>
<path d="M232.936 65.4915C232.384 65.4915 231.915 65.3239 231.528 64.9888C231.197 64.5978 231.031 64.1229 231.031 63.5643V23.8475C231.031 23.2889 231.197 22.842 231.528 22.5068C231.915 22.1158 232.384 21.9203 232.936 21.9203H236.828C237.38 21.9203 237.822 22.1158 238.153 22.5068C238.539 22.842 238.733 23.2889 238.733 23.8475V27.5343C240.168 25.635 241.962 24.0988 244.115 22.9258C246.323 21.6968 249.139 21.0824 252.562 21.0824C256.15 21.0824 259.186 21.8923 261.67 23.5123C264.21 25.0764 266.115 27.2829 267.384 30.1318C268.709 32.9248 269.372 36.1926 269.372 39.9353V63.5643C269.372 64.1229 269.178 64.5978 268.792 64.9888C268.461 65.3239 268.019 65.4915 267.467 65.4915H263.327C262.775 65.4915 262.305 65.3239 261.919 64.9888C261.588 64.5978 261.422 64.1229 261.422 63.5643V40.3543C261.422 36.444 260.484 33.3996 258.607 31.2211C256.73 28.9866 253.969 27.8694 250.326 27.8694C246.903 27.8694 244.143 28.9866 242.045 31.2211C240.002 33.3996 238.981 36.444 238.981 40.3543V63.5643C238.981 64.1229 238.788 64.5978 238.401 64.9888C238.07 65.3239 237.628 65.4915 237.076 65.4915H232.936Z" stroke="#2E3192" mask="url(#path-1-inside-1_413_1878)" class="svg-elem-20"></path>
<path d="M297.494 65.4915C294.403 65.4915 291.891 64.905 289.959 63.7319C288.026 62.503 286.619 60.7992 285.735 58.6207C284.852 56.3862 284.41 53.7608 284.41 50.7443V28.6235H277.951C277.399 28.6235 276.93 28.456 276.544 28.1208C276.212 27.7298 276.047 27.255 276.047 26.6963V23.8475C276.047 23.2889 276.212 22.842 276.544 22.5068C276.93 22.1158 277.399 21.9203 277.951 21.9203H284.41V7.92719C284.41 7.36858 284.576 6.9217 284.907 6.58654C285.294 6.19551 285.763 6 286.315 6H290.207C290.759 6 291.201 6.19551 291.532 6.58654C291.918 6.9217 292.112 7.36858 292.112 7.92719V21.9203H302.38C302.987 21.9203 303.456 22.1158 303.788 22.5068C304.119 22.842 304.285 23.2889 304.285 23.8475V26.6963C304.285 27.255 304.119 27.7298 303.788 28.1208C303.456 28.456 302.987 28.6235 302.38 28.6235H292.112V50.1578C292.112 52.7832 292.553 54.8501 293.437 56.3583C294.32 57.8666 295.893 58.6207 298.157 58.6207H303.208C303.76 58.6207 304.202 58.8162 304.533 59.2072C304.919 59.5424 305.113 59.9893 305.113 60.5479V63.5643C305.113 64.1229 304.919 64.5978 304.533 64.9888C304.202 65.3239 303.76 65.4915 303.208 65.4915H297.494Z" stroke="#2E3192" mask="url(#path-1-inside-1_413_1878)" class="svg-elem-21"></path>
<path d="M94.2263 395.059V145.337H138.893C146.207 145.337 151.834 147.105 155.631 150.564C159.419 154.016 161.462 159.224 161.462 166.274V327.757C161.462 335.092 159.418 340.514 155.628 344.107C151.833 347.704 146.208 349.543 138.893 349.543H116.599H116.099V350.043V395.069H99.6276H99.6266L94.2263 395.059ZM139.74 167.6V167.1H139.24H116.599H116.099V167.6V327.198V327.698H116.599H139.24V327.21H139.74V327.198V326.698V167.6Z" fill="#808285" stroke="#808285" class="svg-elem-22"></path>
<path d="M49.1175 327.21V145.337H70.2842V327.21C70.2842 334.56 68.4551 340.094 64.8815 343.791C61.3109 347.485 55.9193 349.427 48.6175 349.427H25.1667C18.3394 349.427 13.1744 347.56 9.59878 343.999C6.02106 340.436 3.96575 335.108 3.5 328.043V145.337H24.668L25.1526 327.211L25.1539 327.71H25.6526H48.6175H49.1175V327.21Z" fill="#808285" stroke="#808285" class="svg-elem-23"></path>
<path d="M206.92 350.601L207.419 350.601L207.419 350.102L207.489 168.169L229.769 168.147L230.269 168.146V167.647V144.988V144.49L229.77 144.488L184.906 144.362V99.8803L307.198 99.8802L307.359 395.338L184.908 395.499L185.077 350.624L206.92 350.601Z" fill="#2E3192" stroke="#2E3192" class="svg-elem-24"></path>
</svg>
