<svg width="313" height="401" viewBox="0 0 313 401" fill="none" xmlns="http://www.w3.org/2000/svg">
<path d="M23.6733 61.9405C20.4992 61.9405 17.7786 61.539 15.5114 60.7361C13.2442 59.9331 11.4021 58.9581 9.98511 57.8111C8.56811 56.6641 7.49119 55.517 6.75435 54.37C6.07419 53.2229 5.70577 52.3053 5.6491 51.6171C5.59242 50.9862 5.79079 50.4987 6.24423 50.1546C6.69767 49.8105 7.15111 49.6384 7.60455 49.6384H11.4304C11.7138 49.6384 11.9406 49.6957 12.1106 49.8104C12.3373 49.8678 12.6207 50.0972 12.9608 50.4987C13.6976 51.3016 14.5195 52.1045 15.4264 52.9075C16.3333 53.7104 17.4385 54.37 18.7422 54.8861C20.1025 55.4023 21.7745 55.6604 23.7583 55.6604C26.649 55.6604 29.0296 55.1155 30.9 54.0258C32.7704 52.8788 33.7056 51.2156 33.7056 49.0362C33.7056 47.6024 33.3089 46.4553 32.5154 45.5951C31.7785 44.7348 30.4182 43.9605 28.4344 43.2723C26.5073 42.5841 23.8433 41.8672 20.4425 41.1216C17.0418 40.3186 14.3495 39.3437 12.3657 38.1966C10.3819 36.9922 8.96487 35.5871 8.11467 33.9812C7.26447 32.318 6.83937 30.4541 6.83937 28.3894C6.83937 26.2673 7.46285 24.2313 8.70981 22.2814C9.95677 20.274 11.7705 18.6395 14.1511 17.3777C16.5883 16.116 19.6207 15.4851 23.2482 15.4851C26.1956 15.4851 28.7178 15.8579 30.815 16.6035C32.9121 17.3491 34.6409 18.2954 36.0012 19.4424C37.3615 20.5321 38.3817 21.6218 39.0619 22.7115C39.7421 23.8012 40.1105 24.7188 40.1672 25.4644C40.2238 26.0379 40.0538 26.5254 39.657 26.9269C39.2603 27.271 38.8068 27.4431 38.2967 27.4431H34.7259C34.3291 27.4431 33.989 27.357 33.7056 27.185C33.4789 27.0129 33.2522 26.8122 33.0255 26.5828C32.4587 25.8372 31.7785 25.0916 30.985 24.346C30.2482 23.6005 29.2563 22.9983 28.0093 22.5394C26.819 22.0233 25.232 21.7652 23.2482 21.7652C20.4142 21.7652 18.2887 22.3674 16.8717 23.5718C15.4547 24.7762 14.7462 26.296 14.7462 28.1313C14.7462 29.221 15.058 30.196 15.6814 31.0563C16.3049 31.9165 17.4952 32.6908 19.2523 33.379C21.0093 34.0673 23.6166 34.8128 27.0741 35.6158C30.815 36.3613 33.7623 37.365 35.9162 38.6268C38.07 39.8885 39.6004 41.351 40.5072 43.0142C41.4141 44.6774 41.8675 46.5987 41.8675 48.7781C41.8675 51.1869 41.1874 53.395 39.8271 55.4023C38.4668 57.4096 36.4263 59.0155 33.7056 60.2199C30.985 61.3669 27.6409 61.9405 23.6733 61.9405Z" fill="#2E3192"/>
<path d="M68.8859 61.0802C65.7119 61.0802 63.1329 60.478 61.1491 59.2736C59.1653 58.0118 57.72 56.2626 56.8131 54.0258C55.9062 51.7318 55.4528 49.0362 55.4528 45.9392V23.2277H48.8212C48.2544 23.2277 47.7727 23.0556 47.3759 22.7115C47.0358 22.31 46.8658 21.8225 46.8658 21.249V18.3241C46.8658 17.7505 47.0358 17.2917 47.3759 16.9476C47.7727 16.5461 48.2544 16.3454 48.8212 16.3454H55.4528V1.97865C55.4528 1.40513 55.6228 0.946314 55.9629 0.602201C56.3597 0.200734 56.8415 0 57.4083 0H61.4042C61.971 0 62.4244 0.200734 62.7645 0.602201C63.1613 0.946314 63.3596 1.40513 63.3596 1.97865V16.3454H73.9021C74.5256 16.3454 75.0074 16.5461 75.3474 16.9476C75.6875 17.2917 75.8576 17.7505 75.8576 18.3241V21.249C75.8576 21.8225 75.6875 22.31 75.3474 22.7115C75.0074 23.0556 74.5256 23.2277 73.9021 23.2277H63.3596V45.337C63.3596 48.0325 63.8131 50.1546 64.72 51.7031C65.6268 53.2516 67.2422 54.0258 69.5661 54.0258H74.7523C75.3191 54.0258 75.7725 54.2266 76.1126 54.628C76.5094 54.9722 76.7078 55.431 76.7078 56.0045V59.1015C76.7078 59.675 76.5094 60.1625 76.1126 60.564C75.7725 60.9081 75.3191 61.0802 74.7523 61.0802H68.8859Z" fill="#2E3192"/>
<path d="M101.332 61.9405C97.7041 61.9405 94.6151 61.1375 92.0645 59.5317C89.5705 57.8685 87.6718 55.5744 86.3681 52.6494C85.0645 49.7244 84.4127 46.3693 84.4127 42.5841V18.3241C84.4127 17.7505 84.5827 17.2917 84.9228 16.9476C85.3196 16.5461 85.8013 16.3454 86.3681 16.3454H90.6191C91.1859 16.3454 91.6394 16.5461 91.9794 16.9476C92.3762 17.2917 92.5746 17.7505 92.5746 18.3241V42.1539C92.5746 50.6994 96.2588 54.9722 103.627 54.9722C107.141 54.9722 109.947 53.8538 112.044 51.6171C114.198 49.323 115.275 46.1686 115.275 42.1539V18.3241C115.275 17.7505 115.445 17.2917 115.785 16.9476C116.182 16.5461 116.664 16.3454 117.23 16.3454H121.481C122.048 16.3454 122.502 16.5461 122.842 16.9476C123.182 17.2917 123.352 17.7505 123.352 18.3241V59.1015C123.352 59.675 123.182 60.1625 122.842 60.564C122.502 60.9081 122.048 61.0802 121.481 61.0802H117.485C116.919 61.0802 116.437 60.9081 116.04 60.564C115.7 60.1625 115.53 59.675 115.53 59.1015V55.3163C114 57.3236 112.129 58.9295 109.919 60.1339C107.765 61.3383 104.902 61.9405 101.332 61.9405Z" fill="#2E3192"/>
<path d="M152.136 61.9405C149.019 61.9405 146.327 61.3956 144.059 60.3059C141.792 59.1589 139.922 57.639 138.448 55.7464C137.031 53.7964 135.954 51.5884 135.217 49.1222C134.537 46.6561 134.14 44.0465 134.027 41.2936C133.97 40.376 133.942 39.5157 133.942 38.7128C133.942 37.9099 133.97 37.0496 134.027 36.1319C134.14 33.4364 134.537 30.8555 135.217 28.3894C135.954 25.9232 137.031 23.7152 138.448 21.7652C139.922 19.8152 141.792 18.2954 144.059 17.2057C146.327 16.0586 149.019 15.4851 152.136 15.4851C155.48 15.4851 158.258 16.0873 160.468 17.2917C162.679 18.4961 164.493 19.9873 165.91 21.7652V1.97865C165.91 1.40513 166.08 0.946314 166.42 0.602201C166.816 0.200734 167.298 0 167.865 0H171.946C172.513 0 172.966 0.200734 173.306 0.602201C173.703 0.946314 173.901 1.40513 173.901 1.97865V59.1015C173.901 59.675 173.703 60.1625 173.306 60.564C172.966 60.9081 172.513 61.0802 171.946 61.0802H168.12C167.497 61.0802 167.015 60.9081 166.675 60.564C166.335 60.1625 166.165 59.675 166.165 59.1015V55.4883C164.748 57.3236 162.905 58.8721 160.638 60.1339C158.371 61.3383 155.537 61.9405 152.136 61.9405ZM153.922 54.9722C156.756 54.9722 159.023 54.3126 160.723 52.9935C162.424 51.6744 163.699 50.0112 164.549 48.0039C165.399 45.9392 165.853 43.8458 165.91 41.7238C165.966 40.8061 165.995 39.7165 165.995 38.4547C165.995 37.1356 165.966 36.0172 165.91 35.0996C165.853 33.0923 165.371 31.1136 164.464 29.1636C163.614 27.2137 162.31 25.6078 160.553 24.346C158.853 23.0843 156.642 22.4534 153.922 22.4534C151.031 22.4534 148.736 23.113 147.035 24.4321C145.335 25.6938 144.116 27.3857 143.379 29.5077C142.642 31.5724 142.217 33.8092 142.104 36.218C142.047 37.8812 142.047 39.5444 142.104 41.2076C142.217 43.6164 142.642 45.8818 143.379 48.0039C144.116 50.0685 145.335 51.7604 147.035 53.0795C148.736 54.3413 151.031 54.9722 153.922 54.9722Z" fill="#2E3192"/>
<path d="M204.23 61.9405C198.336 61.9405 193.659 60.1339 190.202 56.5207C186.744 52.8501 184.846 47.8605 184.506 41.5517C184.449 40.8061 184.421 39.8598 184.421 38.7128C184.421 37.5084 184.449 36.5334 184.506 35.7878C184.732 31.7158 185.668 28.16 187.311 25.1203C188.955 22.0233 191.194 19.6432 194.028 17.9799C196.919 16.3167 200.291 15.4851 204.145 15.4851C208.453 15.4851 212.052 16.4028 214.943 18.238C217.89 20.0733 220.129 22.6828 221.659 26.0666C223.19 29.4504 223.955 33.4077 223.955 37.9385V39.401C223.955 40.0319 223.756 40.5194 223.36 40.8635C223.02 41.2076 222.566 41.3797 221.999 41.3797H192.583C192.583 41.437 192.583 41.5517 192.583 41.7238C192.583 41.8958 192.583 42.0392 192.583 42.1539C192.696 44.5054 193.206 46.7134 194.113 48.7781C195.02 50.7854 196.323 52.42 198.024 53.6817C199.781 54.9435 201.821 55.5744 204.145 55.5744C206.186 55.5744 207.886 55.2589 209.246 54.628C210.607 53.9972 211.712 53.3089 212.562 52.5634C213.412 51.7604 213.979 51.1296 214.263 50.6707C214.773 49.9825 215.169 49.581 215.453 49.4663C215.736 49.2943 216.19 49.2083 216.813 49.2083H220.979C221.489 49.2083 221.914 49.3803 222.254 49.7244C222.651 50.0112 222.821 50.4413 222.765 51.0148C222.708 51.8751 222.254 52.9362 221.404 54.1979C220.554 55.4023 219.335 56.6067 217.748 57.8111C216.218 59.0155 214.291 60.0192 211.967 60.8221C209.7 61.5677 207.121 61.9405 204.23 61.9405ZM192.583 35.4437H215.878V35.1856C215.878 32.6048 215.396 30.3107 214.433 28.3034C213.526 26.296 212.194 24.7188 210.437 23.5718C208.68 22.3674 206.582 21.7652 204.145 21.7652C201.708 21.7652 199.611 22.3674 197.854 23.5718C196.153 24.7188 194.85 26.296 193.943 28.3034C193.036 30.3107 192.583 32.6048 192.583 35.1856V35.4437Z" fill="#2E3192"/>
<path d="M236.076 61.0802C235.509 61.0802 235.028 60.9081 234.631 60.564C234.291 60.1625 234.121 59.675 234.121 59.1015V18.3241C234.121 17.7505 234.291 17.2917 234.631 16.9476C235.028 16.5461 235.509 16.3454 236.076 16.3454H240.072C240.639 16.3454 241.092 16.5461 241.432 16.9476C241.829 17.2917 242.028 17.7505 242.028 18.3241V22.1093C243.501 20.1593 245.343 18.5821 247.554 17.3777C249.821 16.116 252.712 15.4851 256.226 15.4851C259.91 15.4851 263.027 16.3167 265.578 17.9799C268.185 19.5858 270.141 21.8512 271.444 24.7762C272.805 27.6438 273.485 30.9989 273.485 34.8415V59.1015C273.485 59.675 273.286 60.1625 272.89 60.564C272.55 60.9081 272.096 61.0802 271.529 61.0802H267.278C266.712 61.0802 266.23 60.9081 265.833 60.564C265.493 60.1625 265.323 59.675 265.323 59.1015V35.2716C265.323 31.257 264.359 28.1313 262.432 25.8946C260.505 23.6005 257.671 22.4534 253.93 22.4534C250.416 22.4534 247.582 23.6005 245.428 25.8946C243.331 28.1313 242.283 31.257 242.283 35.2716V59.1015C242.283 59.675 242.084 60.1625 241.687 60.564C241.347 60.9081 240.894 61.0802 240.327 61.0802H236.076Z" fill="#2E3192"/>
<path d="M302.358 61.0802C299.184 61.0802 296.605 60.478 294.622 59.2736C292.638 58.0118 291.192 56.2626 290.286 54.0258C289.379 51.7318 288.925 49.0362 288.925 45.9392V23.2277H282.294C281.727 23.2277 281.245 23.0556 280.848 22.7115C280.508 22.31 280.338 21.8225 280.338 21.249V18.3241C280.338 17.7505 280.508 17.2917 280.848 16.9476C281.245 16.5461 281.727 16.3454 282.294 16.3454H288.925V1.97865C288.925 1.40513 289.095 0.946314 289.435 0.602201C289.832 0.200734 290.314 0 290.881 0H294.877C295.443 0 295.897 0.200734 296.237 0.602201C296.634 0.946314 296.832 1.40513 296.832 1.97865V16.3454H307.375C307.998 16.3454 308.48 16.5461 308.82 16.9476C309.16 17.2917 309.33 17.7505 309.33 18.3241V21.249C309.33 21.8225 309.16 22.31 308.82 22.7115C308.48 23.0556 307.998 23.2277 307.375 23.2277H296.832V45.337C296.832 48.0325 297.286 50.1546 298.192 51.7031C299.099 53.2516 300.715 54.0258 303.039 54.0258H308.225C308.792 54.0258 309.245 54.2266 309.585 54.628C309.982 54.9722 310.18 55.431 310.18 56.0045V59.1015C310.18 59.675 309.982 60.1625 309.585 60.564C309.245 60.9081 308.792 61.0802 308.225 61.0802H302.358Z" fill="#2E3192"/>
<path fill-rule="evenodd" clip-rule="evenodd" d="M93.1489 399.96V142.544H139.521C154.69 142.544 163.206 149.877 163.206 164.554V330.349C163.206 345.599 154.702 353.23 139.521 353.23H116.632V399.972H99.2068L93.1489 399.96ZM139.878 329.787V165.915H116.632V329.775H139.878V329.787Z" fill="#808285"/>
<path fill-rule="evenodd" clip-rule="evenodd" d="M69.5943 329.787C69.5943 345.038 62.0041 353.111 46.8357 353.111H22.7586C8.55229 353.111 0.962133 345.336 0 330.659V142.544H22.7586L23.2575 329.787H46.8357V142.544H69.5943V329.787Z" fill="#808285"/>
<path d="M186.25 400.414L186.428 353.314L209.365 353.29L209.436 165.987L232.824 165.963V142.7L186.25 142.568V95.8738L312.834 95.8738L313 400.247L186.25 400.414Z" fill="#2E3192"/>
</svg>
