<svg width="55" height="54" viewBox="0 0 55 54" fill="none" xmlns="http://www.w3.org/2000/svg">
<g clip-path="url(#clip0_10_1148)">
<path fill-rule="evenodd" clip-rule="evenodd" d="M16.5168 53.9195V8.27539H24.7394C27.429 8.27539 28.9391 9.57557 28.9391 12.1781V41.5762C28.9391 44.2803 27.4311 45.6335 24.7394 45.6335H20.6807V53.9216H17.5909L16.5168 53.9195ZM24.8026 41.4767V12.4195H20.6807V41.4746H24.8026V41.4767Z" fill="#808285"/>
<path fill-rule="evenodd" clip-rule="evenodd" d="M12.3402 41.4767C12.3402 44.1808 10.9943 45.6123 8.30473 45.6123H4.03547C1.51646 45.6123 0.170602 44.2337 0 41.6313V8.27539H4.03547L4.12393 41.4767H8.30473V8.27539H12.3402V41.4767Z" fill="#808285"/>
<path d="M33.0251 54L33.0567 45.6483L37.1238 45.6441L37.1364 12.4322L41.2835 12.428V8.30297L33.0251 8.27968V3.8147e-06L55.4705 0L55.5 53.9704L33.0251 54Z" fill="#2E3192"/>
</g>
<defs>
<clipPath id="clip0_10_1148">
<rect width="55" height="54" fill="white"/>
</clipPath>
</defs>
</svg>
